<mxfile host="app.diagrams.net" modified="2023-05-09T07:59:37.029Z" agent="Mozilla/5.0 (X11; Linux x86_64) AppleWebKit/537.36 (KHTML, like Gecko) Chrome/112.0.0.0 Safari/537.36" version="21.2.8" etag="trBOun-R1X7UshehdA7v" type="github">
  <diagram name="Halaman-1" id="14EzJdFs8N-Gk7QScx3W">
    <mxGraphModel>
      <root>
        <mxCell id="0" />
        <mxCell id="1" parent="0" />
      </root>
    </mxGraphModel>
  </diagram>
</mxfile>
